<?xml version="1.0" encoding="UTF-8"?>
<svg version="1.1" viewBox="0 0 64 64" xml:space="preserve" xmlns="http://www.w3.org/2000/svg" xmlns:xlink="http://www.w3.org/1999/xlink"><defs><radialGradient id="a" cx="32.106" cy="22.342" r="32" gradientUnits="userSpaceOnUse"><stop stop-color="#fff" offset=".66008"/><stop stop-color="#fff" stop-opacity="0" offset="1"/></radialGradient></defs><rect width="64" height="64" ry="0" fill="url(#a)"/><path d="m40 47c0-12 12-12 12-27 0-8-8-18-20-18-13 0-21 10-21 18 0 15 13 15 13 27z" fill="#f8ff01" stroke="#000" stroke-linejoin="round"/><rect x="23" y="47" width="18" height="2" ry="1"/><rect x="23" y="53" width="18" height="2" ry="1"/><rect x="26" y="59" width="12" height="2" ry=".89386"/><rect x="23" y="50" width="18" height="2" ry=".5"/><rect x="23" y="56" width="18" height="2" ry=".89386"/><g fill="none"><ellipse cx="12" cy="46" rx="3.5" ry="5.5" stroke="#a1ff00"/><ellipse cx="54" cy="51.5" rx="3.5" ry="5.5" stroke="#f0f"/><ellipse cx="60" cy="35" rx="3.5" ry="5.5" stroke="#f50"/><ellipse cx="4" cy="11" rx="3.5" ry="5.5" stroke="#ff0101"/><ellipse cx="46" cy="58" rx="3.5" ry="5.5" stroke="#bf6740"/><ellipse cx="4" cy="58" rx="3.5" ry="5.5" stroke="#b440bf"/><g stroke-linecap="round" stroke-linejoin="round"><path d="m15 55 2-2v10h-2 4" stroke="#01f"/><path d="m2 35 2-2v10h-2 4" stroke="#ff006a"/><path d="m46 39 2-2v10h-2 4" stroke="#0af"/><path d="m59 55 2-2v10h-2 4" stroke="#808080"/><path d="m56 15 2-2v10h-2 4" stroke="#ff0"/><path d="m7.5 26.5 2-2v10h-2 4" stroke="#80ff00"/></g></g></svg>
